<svg width="113" height="112" viewBox="0 0 113 112" fill="none" xmlns="http://www.w3.org/2000/svg">
    <g clip-path="url(#clip0_1045_4625)">
    <path fill-rule="evenodd" clip-rule="evenodd" d="M39.7329 44.5737C38.7331 45.0509 37.7335 45.539 36.9155 45.998C24.437 52.9139 12.7513 63.1706 4.84551 75.2775C5.42012 71.297 5.39549 67.1805 4.89572 63.3211C4.80482 62.7148 4.25962 62.284 3.71424 62.3603C3.07796 62.4358 2.62295 62.9893 2.71384 63.5947C3.44102 69.5639 3.07743 76.1857 0.895911 81.8277C0.714118 82.3985 0.986985 83.0384 1.53237 83.2566C1.68136 83.3074 1.83034 83.3306 1.97347 83.329C2.33811 83.3723 2.72122 83.2351 2.95469 82.9321C6.86325 78.2164 13.4992 76.2885 19.4075 75.5486C19.9529 75.4722 20.4074 74.9178 20.3165 74.3115C20.2256 73.7061 19.6799 73.2762 19.0436 73.3525C14.6928 73.9045 9.95972 75.1194 6.03556 77.4771C13.8075 65.2355 25.4873 54.8673 38.0064 47.9323C38.4182 47.6951 38.9047 47.4497 39.3981 47.2009L39.5518 47.1233C39.6427 48.4732 40.097 49.5848 40.7333 50.4811C41.7332 51.81 43.2782 52.7126 45.0962 53.2134C47.6413 53.9051 50.6405 53.8288 53.3674 53.1961C55.458 52.6889 57.367 51.8218 58.5487 50.7519C59.5486 49.8893 60.0938 48.8822 60.1847 47.8205C60.2756 46.7025 59.8216 45.4608 58.4582 44.2137C56.1857 42.0495 53.0947 41.4068 49.7315 41.6814C47.2773 41.885 44.7326 42.5958 42.3693 43.4793C42.642 42.7412 43.0057 41.944 43.4602 41.0842C47.0961 34.6241 55.8216 28.5377 66.0929 23.4929C81.7272 15.8322 100.997 10.6402 111.723 10.5883C112.269 10.5856 112.814 10.0875 112.814 9.47667C112.814 8.86584 112.269 8.37228 111.723 8.37501C100.725 8.42773 81.0912 13.6852 65.0934 21.5059C54.3676 26.7825 45.2776 33.2534 41.5508 40.0116C40.6419 41.7113 40.0056 43.2275 39.7329 44.5737ZM41.7328 46.1126C41.6419 47.3569 41.9144 48.3595 42.4598 49.1521C43.187 50.1111 44.3686 50.7183 45.6412 51.0792C47.8227 51.6791 50.4591 51.5909 52.8224 51.0419C54.4585 50.6483 56.0034 50.0211 57.0033 49.2058C57.5487 48.7449 57.9128 48.2441 58.0037 47.666C58.0037 47.0761 57.6396 46.4761 57.0033 45.8181C55.0944 44.0837 52.5495 43.6674 49.9135 43.8874C47.1866 44.1165 44.187 45.0454 41.7328 46.1126Z" fill="white"/>
    </g>
    <defs>
    <clipPath id="clip0_1045_4625">
    <rect width="112" height="112" fill="white" transform="translate(0.839844)"/>
    </clipPath>
    </defs>
    </svg>
    