<svg width="1628" height="800" viewBox="0 0 1628 800" fill="none" xmlns="http://www.w3.org/2000/svg" transform="translate(0, -100)">
    <g clip-path="url(#clip0_1352_2859)">
      <path opacity="0.05" d="M392.331 620.312C817.497 650.137 893.242 1586 665.615 1946.33C389.703 2382.53 -462.665 1936.34 -725.175 1996.45C-853.605 2025.88 -458.395 1503.75 -458.001 1016.25C-457.607 516.977 -659.679 239.752 -513.249 358.788C-421.41 433.481 -134.134 583.327 392.331 620.312Z" stroke="#9E77ED" stroke-width="5" stroke-miterlimit="10"/>
      <path opacity="0.05" d="M458.299 590.816C919.005 606.188 988.18 1628.24 737.167 2013.2C430.642 2482.85 -466.2 1962.42 -761.228 2048.09C-899.578 2088.23 -530.777 1513.21 -517.31 980.442C-503.58 438.08 -667.09 110.862 -500.23 270.431C-394.07 371.861 -115.465 571.699 458.299 590.816Z" stroke="#9E77ED" stroke-width="5" stroke-miterlimit="10"/>
      <path opacity="0.05" d="M524.249 561.317C1020.5 562.302 1083.43 1670.28 808.701 2080.08C471.432 2583.16 -470.345 1988.11 -797.3 2099.79C-945.898 2150.57 -603.242 1522.87 -576.571 944.702C-549.571 359.114 -674.388 -17.4397 -487.228 182.07C-366.484 310.632 -97.0109 560.135 524.249 561.317Z" stroke="#9E77ED" stroke-width="5" stroke-miterlimit="10"/>
      <path opacity="0.05" d="M590.207 531.889C1122.32 518.75 1178.49 1712.26 880.242 2146.89C512.361 2683.34 -475.008 2013.07 -833.364 2151.29C-992.473 2212.65 -675.7 1532.33 -635.825 908.837C-595.62 280.022 -681.81 -145.604 -474.154 93.5844C-338.826 249.606 -78.4182 548.707 590.207 531.889Z" stroke="#9E77ED" stroke-width="5" stroke-miterlimit="10"/>
      <path opacity="0.05" d="M656.163 502.391C1223.62 474.734 1273.68 1754.24 951.782 2213.76C552.893 2783.59 -480.329 2037.97 -869.429 2202.92C-1039.25 2274.79 -748.291 1541.85 -695.145 873.032C-641.737 200.925 -688.97 -273.445 -461.146 5.22521C-311.103 188.706 -59.7614 537.34 656.163 502.391Z" stroke="#9E77ED" stroke-width="5" stroke-miterlimit="10"/>
      <path opacity="0.05" d="M722.122 472.894C1325.19 430.981 1368.48 1796.22 1023.33 2280.64C593.561 2883.77 -485.384 2062.67 -905.491 2254.36C-1086.08 2336.87 -820.813 1551.44 -754.397 837.031C-687.85 121.698 -696.259 -401.351 -448.136 -83.3304C-283.443 127.873 -41.1006 525.974 722.122 472.894Z" stroke="#9E77ED" stroke-width="5" stroke-miterlimit="10"/>
      <path opacity="0.05" d="M788.07 443.465C1426.8 387.297 1463.46 1838.46 1094.86 2347.45C634.217 2983.95 -490.976 2087.3 -941.631 2306.13C-1133.19 2399.15 -893.478 1560.84 -813.726 801.361C-733.975 41.8823 -703.559 -528.86 -435.136 -171.752C-255.728 67.1084 -22.452 514.742 788.07 443.465Z" stroke="#9E77ED" stroke-width="5" stroke-miterlimit="10"/>
      <path opacity="0.05" d="M854.023 413.967C1528.43 343.609 1558.45 1880.11 1166.46 2414.32C674.878 3084.39 -496.825 2112.13 -977.634 2357.76C-1180.3 2461.36 -966.072 1570.3 -872.984 765.557C-780.16 -36.3598 -710.919 -656.372 -422.067 -259.979C-228.009 6.40652 -3.79833 503.441 854.023 413.967Z" stroke="#9E77ED" stroke-width="5" stroke-miterlimit="10"/>
    </g>
    <defs>
      <clipPath id="clip0_1352_2859">
        <rect width="1440" height="800" fill="white" transform="translate(-12)"/>
      </clipPath>
    </defs>
  </svg>
  