<svg width="248" height="72" viewBox="0 0 248 72" fill="none" xmlns="http://www.w3.org/2000/svg">
    <path fill-rule="evenodd" clip-rule="evenodd" d="M72.2935 43.635L71.5822 46.2952C68.8747 56.4189 61.524 65.1693 50.9746 69.2598C46.7043 70.9156 42.3032 71.6557 37.9894 71.5756C23.254 73.9979 8.32963 65.9112 2.7019 51.4782C-2.92584 37.0451 2.6003 21.0288 15.1061 12.8884C18.2325 9.92336 21.9789 7.50425 26.2492 5.84845C32.5275 3.41405 39.094 2.95898 45.2486 4.18183L48.1298 4.75428L46.3663 7.09743C43.3389 11.1198 43.0359 16.7687 46.0089 21.1706C48.0659 24.2164 51.2629 26.0358 54.6575 26.4437L56.7823 26.699L56.2209 28.7584C55.3238 32.0486 55.8128 35.6867 57.8699 38.7325C60.5348 42.6783 65.1191 44.5687 69.5559 43.9913L72.2935 43.635ZM50.3044 67.541C49.3194 67.923 48.327 68.2534 47.3303 68.5336C54.9206 64.7183 60.4363 58.2111 63.15 50.6607L69.2106 47.7597C66.2715 56.5071 59.6007 63.9364 50.3044 67.541ZM67.0298 45.9052C62.8566 45.6229 58.8535 43.4901 56.336 39.7626C54.3391 36.8059 53.6259 33.3625 54.0684 30.0872C54.0769 30.0245 54.0858 29.9619 54.0951 29.8994L48.1752 32.8071C47.8554 35.9443 48.5923 39.2069 50.4968 42.0268C53.2233 46.0638 57.6925 48.2303 62.233 48.2012L67.0298 45.9052ZM52.3252 27.856C49.2285 26.9927 46.4119 25.0687 44.475 22.2008C41.545 17.8624 41.3787 12.4764 43.5716 8.11106L37.5698 10.7098C35.5497 15.0135 35.7802 20.2368 38.6358 24.4649C40.742 27.5836 43.8883 29.586 47.3041 30.3222L52.3252 27.856ZM26.9194 7.56725C32.1252 5.54872 37.5364 4.96912 42.7116 5.63477L37.3367 7.96208C32.9979 7.33989 28.483 7.59377 24.0542 8.83886C24.9789 8.37404 25.9344 7.94917 26.9194 7.56725ZM51.7105 50.7637L42.4259 47.132C41.712 48.04 40.8524 48.859 39.8536 49.5531C34.4473 53.3105 27.0101 51.9859 23.2423 46.5947C19.4744 41.2034 20.8027 33.7871 26.209 30.0297C27.8247 28.9069 29.6218 28.2378 31.448 27.9956L30.7837 18.2907C27.2511 18.6547 23.7588 19.8913 20.6389 22.0596C10.8184 28.8847 8.40569 42.3563 15.2499 52.1493C22.094 61.9423 35.6033 64.3484 45.4237 57.5233C48.0687 55.685 50.1764 53.3646 51.7105 50.7637Z" fill="#9E77ED"/>
    <path d="M174.665 15.0607H170.985L168.129 10.9359H167.96H164.977V15.0607H161.551V0.253906H167.96C171.916 0.253906 174.39 2.3057 174.39 5.62665C174.39 7.84767 173.269 9.47642 171.344 10.3014L174.665 15.0607ZM170.921 5.62665C170.921 3.99791 169.864 3.04604 167.77 3.04604H164.977V8.20726H167.77C169.864 8.20726 170.921 7.23425 170.921 5.62665Z" fill="#9E77ED"/>
    <path d="M151.128 15.0607L149.816 11.8878H142.942L141.63 15.0607H138.119L144.719 0.253906H148.103L154.724 15.0607H151.128ZM144.042 9.28604H148.738L146.39 3.61716L144.042 9.28604Z" fill="#9E77ED"/>
    <path d="M123.991 12.3109H132.051V15.0607H120.586V0.253906H131.776V3.00374H123.991V6.21892H130.866V8.88414H123.991V12.3109Z" fill="#9E77ED"/>
    <path d="M102.535 15.0607V0.253906H105.962V12.2686H113.386V15.0607H102.535Z" fill="#9E77ED"/>
    <path d="M88.8176 15.3144C84.2275 15.3144 80.8008 12.1204 80.8008 7.65722C80.8008 3.19403 84.2275 0 88.8387 0C91.3982 0 93.5346 0.930711 94.9307 2.62292L92.7308 4.65356C91.7366 3.51132 90.4886 2.91905 89.008 2.91905C86.237 2.91905 84.2698 4.86508 84.2698 7.65722C84.2698 10.4494 86.237 12.3954 89.008 12.3954C90.4886 12.3954 91.7366 11.8031 92.7308 10.6397L94.9307 12.6704C93.5346 14.3837 91.3982 15.3144 88.8176 15.3144Z" fill="#9E77ED"/>
    <path d="M224.59 64.9692C221.296 64.9692 218.132 64.5061 215.096 63.5799C212.112 62.6022 209.77 61.393 208.072 59.9522L210.542 55.6299C212.24 56.9678 214.376 58.0741 216.948 58.9489C219.521 59.7721 222.197 60.1838 224.976 60.1838C228.68 60.1838 231.408 59.6178 233.157 58.4857C234.958 57.3023 235.858 55.6557 235.858 53.546C235.858 52.0538 235.37 50.896 234.392 50.0727C233.414 49.1979 232.179 48.5547 230.687 48.1431C229.195 47.68 227.214 47.2426 224.744 46.831C221.451 46.2135 218.801 45.596 216.794 44.9786C214.787 44.3096 213.063 43.2033 211.623 41.6596C210.233 40.116 209.539 37.9805 209.539 35.2534C209.539 31.8573 210.954 29.0787 213.784 26.9175C216.614 24.7564 220.55 23.6758 225.593 23.6758C228.217 23.6758 230.842 24.036 233.466 24.7564C236.09 25.4253 238.251 26.3258 239.949 27.4578L237.557 31.8573C234.212 29.5418 230.224 28.384 225.593 28.384C222.094 28.384 219.444 29.0015 217.643 30.2364C215.894 31.4714 215.019 33.0922 215.019 35.099C215.019 36.6427 215.508 37.8776 216.485 38.8038C217.514 39.73 218.775 40.4247 220.267 40.8878C221.76 41.2995 223.818 41.7368 226.442 42.1999C229.684 42.8174 232.282 43.4349 234.238 44.0523C236.193 44.6698 237.865 45.7247 239.255 47.2169C240.644 48.7091 241.339 50.7674 241.339 53.3916C241.339 56.9421 239.846 59.7721 236.862 61.8818C233.929 63.9401 229.838 64.9692 224.59 64.9692Z" fill="#323232"/>
    <path d="M203.773 62.1125C202.744 63.0387 201.483 63.759 199.991 64.2736C198.499 64.7367 196.929 64.9683 195.283 64.9683C191.475 64.9683 188.542 63.9391 186.484 61.8809C184.426 59.8227 183.396 56.9154 183.396 53.1591V15.1074H188.877V23.9836H201.149V28.6146H188.877V52.8504C188.877 55.2688 189.468 57.1212 190.652 58.4076C191.835 59.6426 193.559 60.26 195.823 60.26C198.293 60.26 200.3 59.5654 201.843 58.1761L203.773 62.1125Z" fill="#323232"/>
    <path d="M168.522 23.9845V64.5833H163.273V56.5561C161.627 59.2833 159.44 61.3673 156.713 62.808C154.037 64.2488 151.001 64.9692 147.605 64.9692C143.797 64.9692 140.35 64.0945 137.262 62.3449C134.175 60.5954 131.757 58.1513 130.007 55.0125C128.258 51.8737 127.383 48.2975 127.383 44.2839C127.383 40.2703 128.258 36.6941 130.007 33.5553C131.757 30.4165 134.175 27.9981 137.262 26.3C140.35 24.5505 143.797 23.6758 147.605 23.6758C150.898 23.6758 153.857 24.3704 156.481 25.7597C159.157 27.0976 161.344 29.0787 163.042 31.7029V23.9845H168.522ZM148.068 60.1066C150.898 60.1066 153.445 59.4634 155.709 58.177C158.025 56.8392 159.826 54.961 161.112 52.5426C162.45 50.1242 163.119 47.3713 163.119 44.2839C163.119 41.1965 162.45 38.4436 161.112 36.0252C159.826 33.6068 158.025 31.7544 155.709 30.468C153.445 29.1301 150.898 28.4612 148.068 28.4612C145.187 28.4612 142.588 29.1301 140.273 30.468C138.008 31.7544 136.208 33.6068 134.87 36.0252C133.583 38.4436 132.94 41.1965 132.94 44.2839C132.94 47.3713 133.583 50.1242 134.87 52.5426C136.208 54.961 138.008 56.8392 140.273 58.177C142.588 59.4634 145.187 60.1066 148.068 60.1066Z" fill="#323232"/>
    <path d="M102.258 60.1066C104.779 60.1066 107.095 59.6692 109.204 58.7945C111.366 57.8683 113.192 56.5304 114.685 54.7809L117.772 58.3314C115.971 60.4925 113.733 62.1391 111.057 63.2712C108.381 64.4032 105.422 64.9692 102.181 64.9692C98.0128 64.9692 94.308 64.0945 91.0662 62.3449C87.8245 60.544 85.3032 58.0741 83.5022 54.9353C81.7013 51.7965 80.8008 48.246 80.8008 44.2839C80.8008 40.3218 81.6498 36.7713 83.3479 33.6325C85.0974 30.4937 87.4901 28.0495 90.526 26.3C93.5619 24.5505 97.0094 23.6758 100.869 23.6758C104.471 23.6758 107.712 24.4991 110.594 26.1457C113.527 27.7923 115.842 30.0821 117.54 33.015C119.29 35.948 120.216 39.2927 120.319 43.049L86.9755 49.5324C88.0046 52.8256 89.857 55.4241 92.5327 57.328C95.2599 59.1804 98.5016 60.1066 102.258 60.1066ZM100.869 28.384C98.0385 28.384 95.4915 29.0529 93.2274 30.3908C91.0148 31.6772 89.2653 33.5039 87.9789 35.8708C86.7439 38.1864 86.1265 40.8621 86.1265 43.898C86.1265 44.6698 86.1522 45.2358 86.2037 45.596L114.839 40.0388C114.221 36.6427 112.652 33.8641 110.131 31.7029C107.609 29.4903 104.522 28.384 100.869 28.384Z" fill="#323232"/>
    </svg>
    