<svg width="190" height="50" viewBox="0 0 173 48" fill="none" xmlns="http://www.w3.org/2000/svg">
    <path fill-rule="evenodd" clip-rule="evenodd" d="M50.3566 28.0771L49.8625 29.9244C47.9824 36.9548 42.8777 43.0315 35.5517 45.8721C32.5863 47.022 29.53 47.5359 26.5343 47.4803C16.3014 49.1624 5.93724 43.5467 2.02909 33.5237C-1.87905 23.5008 1.95854 12.3784 10.6431 6.72533C12.8142 4.66628 15.4159 2.98635 18.3814 1.83649C22.7413 0.145936 27.3013 -0.170084 31.5754 0.679111L33.5762 1.07665L32.3516 2.70383C30.2492 5.49717 30.0388 9.41995 32.1033 12.4768C33.5318 14.592 35.752 15.8554 38.1094 16.1387L39.5849 16.316L39.195 17.7461C38.5721 20.031 38.9116 22.5574 40.3402 24.6726C42.1908 27.4127 45.3743 28.7255 48.4555 28.3245L50.3566 28.0771ZM35.0863 44.6785C34.4023 44.9437 33.7132 45.1732 33.021 45.3678C38.292 42.7183 42.1224 38.1994 44.0069 32.9561L48.2157 30.9415C46.1746 37.0161 41.5421 42.1753 35.0863 44.6785ZM46.7012 29.6536C43.8032 29.4576 41.0232 27.9765 39.275 25.388C37.8882 23.3347 37.3929 20.9434 37.7002 18.6689C37.7061 18.6254 37.7123 18.5819 37.7188 18.5385L33.6077 20.5577C33.3857 22.7363 33.8974 25.002 35.22 26.9603C37.1134 29.7638 40.217 31.2683 43.3701 31.2481L46.7012 29.6536ZM36.4897 17.1195C34.3392 16.5199 32.3833 15.1839 31.0382 13.1922C29.0034 10.1795 28.888 6.43923 30.4108 3.40774L26.2429 5.21243C24.8401 8.2011 25.0001 11.8284 26.9831 14.7646C28.4458 16.9303 30.6308 18.3208 33.0028 18.8321L36.4897 17.1195ZM18.8468 3.0301C22.4619 1.62834 26.2197 1.22584 29.8135 1.6881L26.081 3.30429C23.068 2.87221 19.9326 3.04851 16.857 3.91316C17.4992 3.59037 18.1628 3.29532 18.8468 3.0301ZM36.0628 33.0276L29.6152 30.5056C29.1194 31.1361 28.5224 31.7049 27.8288 32.1869C24.0745 34.7962 18.9098 33.8763 16.2932 30.1324C13.6767 26.3885 14.5991 21.2383 18.3535 18.629C19.4754 17.8493 20.7234 17.3846 21.9916 17.2164L21.5303 10.4769C19.0771 10.7297 16.6519 11.5884 14.4853 13.0942C7.66556 17.8338 5.99006 27.1891 10.743 33.9898C15.4958 40.7905 24.8773 42.4614 31.697 37.7217C33.5338 36.4452 34.9974 34.8338 36.0628 33.0276Z" fill="white"/>
    <path d="M123.398 12.1989H120.77L118.73 9.25274H118.609H116.479V12.1989H114.031V1.62305H118.609C121.434 1.62305 123.202 3.08855 123.202 5.46056C123.202 7.04693 122.401 8.21027 121.026 8.79949L123.398 12.1989ZM120.724 5.46056C120.724 4.29722 119.969 3.61734 118.473 3.61734H116.479V7.30377H118.473C119.969 7.30377 120.724 6.60879 120.724 5.46056Z" fill="white"/>
    <path d="M106.59 12.1989L105.654 9.93261H100.744L99.8068 12.1989H97.2988L102.013 1.62305H104.43L109.159 12.1989H106.59ZM101.529 8.07429H104.883L103.206 4.02527L101.529 8.07429Z" fill="white"/>
    <path d="M87.2078 10.2348H92.9641V12.1989H84.7754V1.62305H92.7677V3.58713H87.2078V5.88359H92.118V7.78724H87.2078V10.2348Z" fill="white"/>
    <path d="M71.8789 12.1989V1.62305H74.3265V10.2046H79.6295V12.1989H71.8789Z" fill="white"/>
    <path d="M62.0835 12.3798C58.805 12.3798 56.3574 10.0985 56.3574 6.91061C56.3574 3.72276 58.805 1.44141 62.0986 1.44141C63.9267 1.44141 65.4526 2.10617 66.4498 3.31484L64.8785 4.76523C64.1684 3.94939 63.277 3.52635 62.2194 3.52635C60.2403 3.52635 58.8352 4.91632 58.8352 6.91061C58.8352 8.90491 60.2403 10.2949 62.2194 10.2949C63.277 10.2949 64.1684 9.87184 64.8785 9.04088L66.4498 10.4913C65.4526 11.7151 63.9267 12.3798 62.0835 12.3798Z" fill="white"/>
    <path d="M159.057 47.8456C156.705 47.8456 154.445 47.5148 152.277 46.8533C150.145 46.155 148.473 45.2913 147.26 44.2622L149.024 41.175C150.237 42.1305 151.762 42.9207 153.6 43.5455C155.437 44.1336 157.348 44.4276 159.333 44.4276C161.979 44.4276 163.927 44.0233 165.177 43.2147C166.463 42.3694 167.106 41.1933 167.106 39.6865C167.106 38.6207 166.757 37.7937 166.059 37.2057C165.36 36.5809 164.478 36.1215 163.413 35.8275C162.347 35.4967 160.932 35.1843 159.168 34.8903C156.815 34.4492 154.923 34.0082 153.489 33.5672C152.056 33.0894 150.825 32.2992 149.796 31.1966C148.803 30.094 148.307 28.5688 148.307 26.6209C148.307 24.1952 149.318 22.2106 151.339 20.667C153.361 19.1234 156.172 18.3516 159.774 18.3516C161.648 18.3516 163.523 18.6088 165.397 19.1234C167.272 19.6012 168.815 20.2443 170.028 21.0529L168.319 24.1952C165.93 22.5414 163.082 21.7144 159.774 21.7144C157.275 21.7144 155.382 22.1555 154.096 23.0375C152.846 23.9196 152.221 25.0773 152.221 26.5107C152.221 27.6132 152.571 28.4953 153.269 29.1568C154.004 29.8184 154.904 30.3146 155.97 30.6453C157.036 30.9394 158.506 31.2517 160.38 31.5825C162.696 32.0236 164.552 32.4646 165.948 32.9056C167.345 33.3467 168.54 34.1001 169.532 35.1659C170.524 36.2317 171.02 37.7018 171.02 39.5762C171.02 42.1122 169.955 44.1336 167.823 45.6404C165.728 47.1105 162.806 47.8456 159.057 47.8456Z" fill="white"/>
    <path d="M144.193 45.806C143.458 46.4675 142.557 46.9821 141.491 47.3496C140.426 47.6804 139.305 47.8458 138.129 47.8458C135.409 47.8458 133.314 47.1107 131.844 45.6406C130.374 44.1705 129.639 42.094 129.639 39.411V12.2324H133.553V18.5723H142.318V21.88H133.553V39.1905C133.553 40.9179 133.975 42.241 134.821 43.1598C135.666 44.0419 136.897 44.4829 138.514 44.4829C140.279 44.4829 141.712 43.9867 142.815 42.9944L144.193 45.806Z" fill="white"/>
    <path d="M119.011 18.5721V47.5699H115.262V41.8365C114.086 43.7844 112.524 45.2729 110.576 46.302C108.665 47.331 106.496 47.8456 104.071 47.8456C101.351 47.8456 98.8886 47.2208 96.6835 45.9712C94.4783 44.7216 92.7509 42.9759 91.5013 40.7339C90.2518 38.492 89.627 35.9377 89.627 33.071C89.627 30.2043 90.2518 27.65 91.5013 25.4081C92.7509 23.1662 94.4783 21.4388 96.6835 20.2259C98.8886 18.9764 101.351 18.3516 104.071 18.3516C106.423 18.3516 108.536 18.8477 110.411 19.84C112.322 20.7956 113.884 22.2106 115.097 24.085V18.5721H119.011ZM104.402 44.3725C106.423 44.3725 108.242 43.913 109.859 42.9942C111.513 42.0387 112.8 40.6972 113.718 38.9698C114.674 37.2424 115.152 35.2762 115.152 33.071C115.152 30.8658 114.674 28.8996 113.718 27.1722C112.8 25.4448 111.513 24.1217 109.859 23.2029C108.242 22.2473 106.423 21.7696 104.402 21.7696C102.343 21.7696 100.487 22.2473 98.8335 23.2029C97.2164 24.1217 95.93 25.4448 94.9745 27.1722C94.0557 28.8996 93.5962 30.8658 93.5962 33.071C93.5962 35.2762 94.0557 37.2424 94.9745 38.9698C95.93 40.6972 97.2164 42.0387 98.8335 42.9942C100.487 43.913 102.343 44.3725 104.402 44.3725Z" fill="white"/>
    <path d="M71.6833 44.3725C73.4842 44.3725 75.138 44.0601 76.6449 43.4353C78.1885 42.7737 79.4932 41.8181 80.5591 40.5686L82.7642 43.1045C81.4779 44.6481 79.8791 45.8242 77.968 46.6327C76.0569 47.4413 73.9436 47.8456 71.6282 47.8456C68.6512 47.8456 66.005 47.2208 63.6896 45.9712C61.3742 44.6849 59.5733 42.9207 58.2869 40.6788C57.0006 38.4369 56.3574 35.901 56.3574 33.071C56.3574 30.2411 56.9638 27.7051 58.1767 25.4632C59.4263 23.2213 61.1353 21.4755 63.3037 20.2259C65.4721 18.9764 67.9345 18.3516 70.691 18.3516C73.2637 18.3516 75.5791 18.9396 77.6372 20.1157C79.7321 21.2918 81.386 22.9273 82.5988 25.0222C83.8484 27.1171 84.51 29.506 84.5835 32.1889L60.7677 36.8198C61.5028 39.172 62.8259 41.028 64.737 42.3878C66.6849 43.7109 69.0003 44.3725 71.6833 44.3725ZM70.691 21.7144C68.6696 21.7144 66.8503 22.1922 65.2332 23.1478C63.6528 24.0666 62.4032 25.3713 61.4844 27.0619C60.6024 28.7158 60.1613 30.627 60.1613 32.7954C60.1613 33.3467 60.1797 33.7509 60.2165 34.0082L80.6693 30.0389C80.2283 27.6132 79.1073 25.6286 77.3064 24.085C75.5056 22.5046 73.3004 21.7144 70.691 21.7144Z" fill="white"/>
    </svg>
    