<svg width="87" height="62" viewBox="0 0 87 62" fill="none" xmlns="http://www.w3.org/2000/svg">
    <path opacity="0.08"
        d="M24.2581 7.39855L19.0582 2.59868C18.6877 2.25665 18.1224 2.24018 17.7459 2.5757C2.21867 16.415 -4.41595 48.6115 7.90964 56.5C19.249 63.7573 33.9096 61.5 36.9096 43.5C39.2271 29.5955 27.7455 24.8282 21.1007 24.0664C20.6853 24.0188 20.3284 23.7342 20.2447 23.3245C19.2052 18.2391 22.2911 11.9312 24.4078 8.72783C24.6868 8.30566 24.6299 7.74177 24.2581 7.39855Z"
        stroke="#9E77ED" stroke-width="3" />
    <path opacity="0.08"
        d="M72.1682 7.39855L66.9684 2.59868C66.5978 2.25665 66.0325 2.24018 65.6561 2.5757C50.1288 16.415 43.4942 48.6115 55.8198 56.5C67.1592 63.7573 81.8198 61.5 84.8198 43.5C87.1372 29.5955 75.6556 24.8282 69.0109 24.0664C68.5954 24.0188 68.2386 23.7342 68.1549 23.3245C67.1154 18.2391 70.2013 11.9312 72.318 8.72783C72.5969 8.30566 72.5401 7.74177 72.1682 7.39855Z"
        stroke="#9E77ED" stroke-width="3" />
</svg>
    