<svg width="93" height="133" viewBox="0 0 93 133" fill="none" xmlns="http://www.w3.org/2000/svg">
    <path fill-rule="evenodd" clip-rule="evenodd"
        d="M42.7528 77.0988C44.7208 76.7774 46.6714 76.2237 48.5973 75.4112C55.3561 72.5611 58.6684 63.8529 58.4525 55.1429C58.2371 46.4363 54.496 37.9072 47.8714 35.3938C44.0837 33.9559 41.0309 34.1354 38.6107 35.3153C36.2036 36.4898 34.3917 38.6944 33.1431 41.5059C29.6663 49.3441 30.61 62.0214 33.3646 67.4579C34.6401 69.972 36.0867 72.3983 37.6763 74.7342C29.5157 74.4811 21.1877 70.2428 13.3365 64.0993C-3.72751 50.7478 -18.5198 28.2839 -24.5959 15.7547C-24.9223 15.0815 -25.7356 14.8023 -26.4134 15.128C-27.0912 15.4537 -27.3771 16.2631 -27.0506 16.9363C-20.8541 29.7134 -5.75368 52.6116 11.6486 66.2269C20.6373 73.261 30.2502 77.7945 39.5891 77.4192C52.3128 94.4548 72.6509 106.969 89.797 117.704C90.4301 118.103 91.274 117.911 91.6764 117.278C92.0755 116.645 91.8882 115.809 91.2517 115.41C74.807 105.113 55.299 93.2249 42.7528 77.0988ZM40.9058 74.6218C43.1377 74.3922 45.3562 73.8398 47.5401 72.9162C53.3901 70.4506 55.9183 62.754 55.7311 55.2141C55.6147 50.5927 54.4557 45.9957 52.2638 42.5822C50.8867 40.4356 49.1044 38.7639 46.8939 37.9264C43.9942 36.8257 41.6576 36.8429 39.808 37.7477C37.9448 38.6545 36.6022 40.4163 35.6379 42.5947C32.4674 49.7378 33.2912 61.286 35.7991 66.2343C37.2776 69.1533 38.9941 71.9436 40.9058 74.6218Z"
        fill="white" />
</svg>
    