<svg width="1440" height="552" viewBox="0 0 1440 552" fill="none" xmlns="http://www.w3.org/2000/svg">
<g clip-path="url(#clip0_1568_16498)">
<path d="M0 0H1440V552H0V0Z" fill="#9E77ED"/>
<path d="M1244.61 -1555.13C1652.92 -1426.24 1798.61 -574.236 1606.73 -197.034C1385.08 239.258 402.95 2.14297 220.276 -36.5542C87.4918 -65.008 813.348 -505.283 740.032 -947.076C661.784 -1418.27 165.74 -1556.46 242.755 -1592.6C300.231 -1656.62 757.958 -1708.88 1244.61 -1555.13Z" stroke="white" stroke-opacity="0.08" stroke-width="4.38131" stroke-miterlimit="10"/>
<path d="M1339.84 -1598C1799.65 -1491.02 1936.33 -513.535 1709.74 -100.765C1444.17 383.708 384.458 122.597 167.925 37.7099C32.2948 -15.4986 709.4 -491.815 654.2 -998.861C596.059 -1532.46 153.982 -1739.99 261.253 -1720.35C339.691 -1743.78 784.992 -1726.9 1339.84 -1598Z" stroke="white" stroke-opacity="0.08" stroke-width="4.38131" stroke-miterlimit="10"/>
<path d="M1435.07 -1640.31C1946.2 -1554.95 2073.86 -452.456 1813.32 -3.92945C1503.74 529.105 390.629 179.882 116.145 112.446C-37.8848 74.5081 605.74 -477.685 568.845 -1050.27C530.906 -1646.28 132.553 -1899.24 280.323 -1847.74C374.98 -1814.82 811.84 -1744.45 1435.07 -1640.31Z" stroke="white" stroke-opacity="0.08" stroke-width="4.38131" stroke-miterlimit="10"/>
<path d="M1530.19 -1682.89C2092.72 -1618.68 2211.28 -391.567 1916.6 92.527C1562.72 674.028 395.076 135.587 63.9688 187.373C-107.608 214.025 501.398 -463.46 483.188 -1101.68C464.219 -1759.91 118.031 -2087.22 299.092 -1974.93C411.769 -1905.5 838.576 -1761.71 1530.19 -1682.89Z" stroke="white" stroke-opacity="0.08" stroke-width="4.38131" stroke-miterlimit="10"/>
<path d="M1625.41 -1725.38C2239.25 -1682.32 2348.61 -331.147 2019.97 189.083C1621.62 818.86 390.992 174.666 11.9873 261.45C-173.437 303.941 397.157 -449.894 397.726 -1153.75C398.295 -1874.58 106.549 -2274.83 317.96 -2102.96C450.555 -1995.12 865.316 -1778.78 1625.41 -1725.38Z" stroke="white" stroke-opacity="0.08" stroke-width="4.38131" stroke-miterlimit="10"/>
<path d="M1720.66 -1767.97C2385.81 -1745.77 2485.68 -270.159 2123.28 285.638C1680.73 963.692 385.889 212.322 -40.0639 336.002C-239.81 393.953 292.656 -436.234 312.099 -1205.44C331.922 -1988.48 95.8502 -2460.91 336.759 -2230.53C490.03 -2084.09 892.272 -1795.57 1720.66 -1767.97Z" stroke="white" stroke-opacity="0.08" stroke-width="4.38131" stroke-miterlimit="10"/>
<path d="M1815.87 -1810.56C2532.34 -1809.13 2623.2 -209.46 2226.56 382.189C1739.62 1108.52 379.905 249.404 -92.143 410.643C-306.685 483.959 188.032 -422.295 226.54 -1257.03C265.521 -2102.49 85.314 -2646.15 355.53 -2358.1C529.857 -2172.49 918.915 -1812.26 1815.87 -1810.56Z" stroke="white" stroke-opacity="0.08" stroke-width="4.38131" stroke-miterlimit="10"/>
<path d="M1911.1 -1853.04C2679.35 -1872.01 2760.44 -148.85 2329.84 478.651C1798.71 1253.16 373.17 285.449 -144.214 485.005C-373.931 573.591 83.416 -408.634 140.988 -1308.82C199.033 -2216.68 74.5952 -2831.19 374.403 -2485.86C569.786 -2260.6 945.756 -1828.76 1911.1 -1853.04Z" stroke="white" stroke-opacity="0.08" stroke-width="4.38131" stroke-miterlimit="10"/>
<path d="M2006.32 -1895.63C2825.6 -1935.56 2897.88 -88.2488 2433.13 575.199C1857.23 1397.89 365.49 321.391 -196.283 559.549C-441.459 663.31 -21.3867 -394.886 55.3436 -1360.51C132.453 -2330.88 64.2591 -3015.76 393.185 -2613.43C609.813 -2348.52 972.694 -1845.18 2006.32 -1895.63Z" stroke="white" stroke-opacity="0.08" stroke-width="4.38131" stroke-miterlimit="10"/>
<path d="M2101.55 -1938.22C2972.24 -1998.73 3034.74 -27.6419 2536.42 671.752C1915.94 1542.53 358.189 357.053 -248.351 633.814C-509.082 752.94 -126.094 -381.038 -30.2048 -1412.49C65.8742 -2445.27 53.7338 -3200.43 411.967 -2741.28C649.746 -2436.35 999.633 -1861.58 2101.55 -1938.22Z" stroke="white" stroke-opacity="0.08" stroke-width="4.38131" stroke-miterlimit="10"/>
<path d="M2196.77 -1980.71C3118.95 -2061.8 3171.88 33.3462 2639.7 768.213C1974.64 1687.18 350.114 392.623 -300.529 708.555C-577.1 842.857 -231.007 -367.472 -115.864 -1463.99C-0.720796 -2560.5 43.1929 -3384.52 430.734 -2868.94C689.758 -2524.08 1026.56 -1877.8 2196.77 -1980.71Z" stroke="white" stroke-opacity="0.08" stroke-width="4.38131" stroke-miterlimit="10"/>
<path d="M2291.99 -2023.29C3265.68 -2124.87 3309.02 93.4769 2743.08 864.764C2033.35 1832.19 341.673 428.473 -352.505 783.102C-645.104 932.674 -335.812 -353.816 -201.415 -1515.68C-67.3977 -2673.46 32.5698 -3568.62 449.608 -2996.32C729.783 -2611.72 1053.49 -1894.11 2291.99 -2023.29Z" stroke="white" stroke-opacity="0.08" stroke-width="4.38131" stroke-miterlimit="10"/>
<path d="M2387.23 -2065.88C3412.42 -2187.95 3444.67 152.948 2846.1 961.32C2089.89 1975.03 332.681 463.379 -404.841 857.559C-713.47 1022.5 -440.977 -340.156 -287.232 -1567.37C-134.34 -2787.66 21.6814 -3752.81 468.121 -3123.98C769.826 -2699.35 1080.64 -1910.24 2387.23 -2065.88Z" stroke="white" stroke-opacity="0.08" stroke-width="4.38131" stroke-miterlimit="10"/>
<path d="M2482.45 -2108.37C3559.14 -2250.93 3581.9 213.553 2949.66 1057.68C2149.06 2119.96 324.226 498.09 -456.641 931.916C-781.489 1112.12 -545.607 -326.69 -372.513 -1619.44C-200.842 -2902.33 11.3289 -3937.19 487.171 -3252.02C809.837 -2786.99 1107.65 -1926.46 2482.45 -2108.37Z" stroke="white" stroke-opacity="0.08" stroke-width="4.38131" stroke-miterlimit="10"/>
<path d="M2577.67 -2150.96C3706.34 -2313.91 3719.24 274.251 3052.94 1154.33C2207.96 2264.02 315.308 533.939 -508.714 1006.56C-850.159 1202.22 -652.785 -313.13 -458.066 -1670.85C-269.797 -3016.52 0.70399 -4120.91 505.949 -3379.22C849.86 -2874.54 1134.78 -1942.58 2577.67 -2150.96Z" stroke="white" stroke-opacity="0.08" stroke-width="4.38131" stroke-miterlimit="10"/>
<path d="M2672.89 -2193.54C3853.06 -2374.79 3856.57 334.957 3156.23 1250.88C2266.86 2409.33 306.201 569.226 -560.881 1081.11C-918.166 1292.05 -757.212 -299.468 -543.714 -1722.54C-336.096 -3130.72 -9.92064 -4304.81 524.821 -3506.87C889.883 -2962.08 1162.28 -1956.05 2672.89 -2193.54Z" stroke="white" stroke-opacity="0.08" stroke-width="4.38131" stroke-miterlimit="10"/>
<path d="M2768.13 -2236.03C3999.8 -2438.25 3993.73 395.562 3259.53 1347.44C2325.87 2554.07 297.018 604.413 -612.935 1155.66C-986.533 1381.96 -861.716 -286.001 -629.248 -1774.23C-402.377 -3244.91 -20.6216 -4488.82 543.617 -3634.44C930.209 -3049.15 1189.33 -1972.74 2768.13 -2236.03Z" stroke="white" stroke-opacity="0.08" stroke-width="4.38131" stroke-miterlimit="10"/>
<path d="M2863.35 -2278.62C4146.52 -2501.7 4131.16 456.265 3362.81 1443.9C2384.76 2698.52 287.622 639.698 -665.01 1230.11C-1055.02 1471.88 -966.715 -272.056 -714.804 -1825.63C-468.205 -3358.82 -29.7321 -4673.48 562.391 -3761.82C971.082 -3137.83 1216.35 -1989.53 2863.35 -2278.62Z" stroke="white" stroke-opacity="0.08" stroke-width="4.38131" stroke-miterlimit="10"/>
<path d="M2958.57 -2321.21C4293.24 -2565.43 4268.77 517.06 3466.09 1540.45C2443.65 2843.54 278.222 674.978 -717.092 1304.28C-1123.6 1561.5 -1070.77 -258.78 -800.461 -1877.99C-534.987 -3473.39 -41.2194 -4857.1 581.16 -3889.77C1010.53 -3224.9 1243.18 -2005.84 2958.57 -2321.21Z" stroke="white" stroke-opacity="0.08" stroke-width="4.38131" stroke-miterlimit="10"/>
<path d="M600.042 -4017.34C1049.99 -3312.06 1270.51 -2023.01 3053.8 -2363.7C4440.07 -2628.6 4405.83 577.571 3569.48 1637C2502.56 2988.37 268.84 710.26 -769.155 1379.11C-1608.54 1920.12 -715.756 -6079.95 600.042 -4017.34Z" stroke="white" stroke-opacity="0.08" stroke-width="4.38131" stroke-miterlimit="10"/>
</g>
<defs>
<clipPath id="clip0_1568_16498">
<rect width="1440" height="552" fill="white"/>
</clipPath>
</defs>
</svg>
