<svg width="81" height="81" viewBox="0 0 81 81" fill="none" xmlns="http://www.w3.org/2000/svg">
    <circle cx="40.5" cy="40.418" r="40" fill="#9E77ED" fill-opacity="0.16"/>
    <g filter="url(#filter0_b_1045_3575)">
    <path d="M56.9114 39.3364C56.5297 38.8821 56.0678 38.5024 55.5613 38.1935C54.4503 37.505 53.1404 37.2128 51.8297 37.3487C51.7915 37.2494 51.7332 37.1467 51.6821 37.0505C51.6319 36.9527 51.5609 36.7452 51.4799 36.6078L51.2587 36.2856C51.1524 36.0996 51.0241 35.9332 50.8817 35.7682C50.875 35.7431 50.8613 35.7116 50.8386 35.6768L50.7912 35.648C50.4159 35.1977 49.9805 34.8109 49.4841 34.4873L49.3958 34.4334C49.171 34.2963 48.9376 34.175 48.6918 34.0702L48.5955 34.0115C48.3354 33.8958 48.0609 33.8055 47.7787 33.7436C44.1811 32.8946 41.1154 35.4863 40.2762 38.8741C39.8976 40.6359 39.9157 42.4547 40.326 44.1909C40.9631 46.6504 41.855 49.023 42.9921 51.2806L43.1214 51.5369L43.3966 51.5383C45.9332 51.5101 48.4533 51.2183 50.926 50.6664C52.6745 50.2467 54.3158 49.429 55.714 48.289C58.3523 45.9984 59.2826 42.1043 56.9114 39.3364Z" fill="#9D88FA"/>
    </g>
    <g opacity="0.5" filter="url(#filter1_f_1045_3575)">
    <path d="M51.5883 40.5208C51.3474 40.2342 51.056 39.9946 50.7363 39.7996C50.0353 39.3651 49.2086 39.1808 48.3815 39.2665C48.3574 39.2039 48.3207 39.1391 48.2884 39.0784C48.2567 39.0166 48.2119 38.8857 48.1608 38.799L48.0212 38.5957C47.9542 38.4783 47.8732 38.3733 47.7833 38.2691C47.7791 38.2534 47.7704 38.2335 47.7561 38.2115L47.7262 38.1933C47.4894 37.9091 47.2146 37.6651 46.9014 37.4609L46.8456 37.4269C46.7038 37.3404 46.5565 37.2638 46.4014 37.1977L46.3406 37.1606C46.1765 37.0876 46.0032 37.0306 45.8252 36.9915C43.555 36.4558 41.6204 38.0913 41.0908 40.2291C40.8519 41.3409 40.8633 42.4886 41.1222 43.5842C41.5243 45.1363 42.0871 46.6335 42.8046 48.0582L42.8862 48.2198L43.0599 48.2208C44.6606 48.2029 46.2509 48.0188 47.8113 47.6706C48.9146 47.4057 49.9504 46.8897 50.8327 46.1703C52.4976 44.7248 53.0846 42.2675 51.5883 40.5208Z" fill="#130D3A"/>
    </g>
    <g filter="url(#filter2_b_1045_3575)">
    <path d="M54.6265 31.046C54.5352 30.9528 54.4276 30.8774 54.3113 30.8182C54.0561 30.686 53.7638 30.6441 53.4786 30.6961C53.4685 30.6749 53.454 30.6534 53.4412 30.6332C53.4286 30.6126 53.4095 30.5683 53.3895 30.5395L53.3356 30.4726C53.3092 30.4336 53.2782 30.3993 53.2442 30.3655C53.2424 30.3601 53.2388 30.3534 53.2333 30.3462L53.2224 30.3407C53.1325 30.2483 53.0306 30.1708 52.9163 30.1082L52.896 30.0979C52.8444 30.0717 52.7912 30.049 52.7355 30.0302L52.7134 30.0189C52.6544 29.998 52.5927 29.9828 52.5297 29.974C51.7263 29.8487 51.0969 30.4689 50.9693 31.2261C50.9156 31.6188 50.9499 32.0174 51.0688 32.3912C51.2496 32.9198 51.4848 33.425 51.7719 33.9009L51.8045 33.9549L51.8649 33.9505C52.4209 33.9014 52.9689 33.7948 53.5022 33.6319C53.8788 33.5103 54.2253 33.3032 54.513 33.0295C55.0537 32.4826 55.1929 31.6129 54.6265 31.046Z" fill="#9D88FA"/>
    </g>
    <g filter="url(#filter3_b_1045_3575)">
    <mask id="path-5-outside-1_1045_3575" maskUnits="userSpaceOnUse" x="19.6422" y="24.4733" width="33.3718" height="32.5128" fill="black">
    <rect fill="white" x="19.6422" y="24.4733" width="33.3718" height="32.5128"/>
    <path d="M40.9836 27.0209C40.1461 26.9312 39.3017 26.9958 38.4824 27.1761C36.6746 27.5604 35.0599 28.5429 33.8699 29.9622C33.7325 29.8984 33.5716 29.8507 33.4242 29.8027C33.2762 29.7521 32.9982 29.6101 32.7796 29.5492L32.2357 29.4372C31.9433 29.3516 31.6481 29.3075 31.3401 29.2785C31.3085 29.2596 31.2633 29.2409 31.2057 29.2277L31.1291 29.2445C30.302 29.1526 29.4772 29.1841 28.6536 29.3395L28.5108 29.371C28.1472 29.451 27.7907 29.5554 27.438 29.6889L27.2822 29.7232C26.9043 29.8596 26.5369 30.0358 26.1901 30.2485C21.7089 32.8994 21.1864 38.5355 23.7063 42.8067C25.0752 44.9714 26.9018 46.8064 29.0428 48.1742C32.1324 50.057 35.3929 51.6023 38.7872 52.7909L39.1726 52.9256L39.4523 52.6582C41.9887 50.1505 44.2463 47.3906 46.1974 44.4119C47.5478 42.2756 48.3941 39.8386 48.6742 37.3109C49.064 32.3992 46.1328 27.5234 40.9836 27.0209Z"/>
    </mask>
    <path d="M40.9836 27.0209C40.1461 26.9312 39.3017 26.9958 38.4824 27.1761C36.6746 27.5604 35.0599 28.5429 33.8699 29.9622C33.7325 29.8984 33.5716 29.8507 33.4242 29.8027C33.2762 29.7521 32.9982 29.6101 32.7796 29.5492L32.2357 29.4372C31.9433 29.3516 31.6481 29.3075 31.3401 29.2785C31.3085 29.2596 31.2633 29.2409 31.2057 29.2277L31.1291 29.2445C30.302 29.1526 29.4772 29.1841 28.6536 29.3395L28.5108 29.371C28.1472 29.451 27.7907 29.5554 27.438 29.6889L27.2822 29.7232C26.9043 29.8596 26.5369 30.0358 26.1901 30.2485C21.7089 32.8994 21.1864 38.5355 23.7063 42.8067C25.0752 44.9714 26.9018 46.8064 29.0428 48.1742C32.1324 50.057 35.3929 51.6023 38.7872 52.7909L39.1726 52.9256L39.4523 52.6582C41.9887 50.1505 44.2463 47.3906 46.1974 44.4119C47.5478 42.2756 48.3941 39.8386 48.6742 37.3109C49.064 32.3992 46.1328 27.5234 40.9836 27.0209Z" fill="#5400FF" fill-opacity="0.14"/>
    <path d="M38.4824 27.1761L38.6916 28.154L38.6987 28.1525L38.4824 27.1761ZM33.8699 29.9622L33.4492 30.8687C33.8596 31.0594 34.3465 30.9512 34.6368 30.605L33.8699 29.9622ZM33.4242 29.8027L33.1016 30.7486C33.1062 30.7502 33.1108 30.7517 33.1154 30.7532L33.4242 29.8027ZM32.7796 29.5492L33.0473 28.5862C33.0252 28.5801 33.0028 28.5746 32.9803 28.57L32.7796 29.5492ZM32.2357 29.4372L31.9557 30.3966C31.9818 30.4043 32.0083 30.4109 32.035 30.4164L32.2357 29.4372ZM31.3401 29.2785L30.8267 30.1359C30.955 30.2127 31.0988 30.2599 31.2476 30.2739L31.3401 29.2785ZM31.2057 29.2277L31.4285 28.2533C31.2841 28.2201 31.1341 28.2194 30.9894 28.2513L31.2057 29.2277ZM31.1291 29.2445L31.0198 30.2382C31.1285 30.2503 31.2385 30.2444 31.3454 30.2209L31.1291 29.2445ZM28.6536 29.3395L28.4669 28.3571C28.457 28.359 28.4472 28.361 28.4373 28.3631L28.6536 29.3395ZM28.5108 29.371L28.2945 28.3946L28.5108 29.371ZM27.438 29.6889L27.6543 30.6653C27.7016 30.6549 27.748 30.6411 27.7933 30.6239L27.438 29.6889ZM27.2822 29.7232L27.0659 28.7468C27.0237 28.7561 26.9822 28.7681 26.9415 28.7828L27.2822 29.7232ZM26.1901 30.2485L26.7003 31.1091C26.7049 31.1064 26.7094 31.1036 26.7139 31.1009L26.1901 30.2485ZM23.7063 42.8067L22.8449 43.3137C22.8501 43.3226 22.8555 43.3314 22.861 43.3401L23.7063 42.8067ZM29.0428 48.1742L28.5049 49.0164C28.5109 49.0202 28.5169 49.024 28.5229 49.0276L29.0428 48.1742ZM38.7872 52.7909L38.4575 53.7344L38.4583 53.7347L38.7872 52.7909ZM39.1726 52.9256L38.8437 53.8693C39.1987 53.9933 39.593 53.908 39.8645 53.6485L39.1726 52.9256ZM39.4523 52.6582L40.1442 53.3811C40.1482 53.3772 40.1522 53.3733 40.1562 53.3694L39.4523 52.6582ZM46.1974 44.4119L47.0344 44.9602C47.0374 44.9557 47.0403 44.9512 47.0432 44.9466L46.1974 44.4119ZM48.6742 37.3109L49.6683 37.4222C49.6695 37.4119 49.6704 37.4015 49.6713 37.3912L48.6742 37.3109ZM41.0889 26.0268C40.1301 25.9241 39.1764 25.9993 38.2661 26.1997L38.6987 28.1525C39.4269 27.9922 40.1621 27.9383 40.8783 28.015L41.0889 26.0268ZM38.2731 26.1982C36.243 26.6297 34.4334 27.7326 33.1029 29.3195L34.6368 30.605C35.6864 29.3531 37.1063 28.491 38.6916 28.154L38.2731 26.1982ZM34.2906 29.0557C34.0824 28.959 33.8383 28.8864 33.7329 28.8521L33.1154 30.7532C33.3048 30.8149 33.3826 30.8378 33.4492 30.8687L34.2906 29.0557ZM33.7468 28.8567C33.7493 28.8576 33.7453 28.8563 33.7323 28.8511C33.7198 28.8461 33.7036 28.8394 33.6821 28.8303C33.627 28.8069 33.5979 28.7937 33.5215 28.761C33.4067 28.7118 33.2277 28.6365 33.0473 28.5862L32.5119 30.5122C32.5501 30.5228 32.6194 30.549 32.7352 30.5986C32.7742 30.6153 32.856 30.651 32.9014 30.6703C32.9542 30.6927 33.0278 30.7234 33.1016 30.7486L33.7468 28.8567ZM32.9803 28.57L32.4363 28.458L32.035 30.4164L32.579 30.5284L32.9803 28.57ZM32.5157 28.4777C32.1384 28.3673 31.7736 28.3152 31.4326 28.2831L31.2476 30.2739C31.5227 30.2998 31.7482 30.3359 31.9557 30.3966L32.5157 28.4777ZM31.8535 28.4211C31.7169 28.3393 31.5701 28.2858 31.4285 28.2533L30.9829 30.202C30.9565 30.196 30.9001 30.1799 30.8267 30.1359L31.8535 28.4211ZM30.9894 28.2513L30.9128 28.2681L31.3454 30.2209L31.422 30.204L30.9894 28.2513ZM31.2384 28.2509C30.3119 28.1479 29.3874 28.1834 28.4669 28.3571L28.8403 30.322C29.5671 30.1849 30.292 30.1573 31.0198 30.2382L31.2384 28.2509ZM28.4373 28.3631L28.2945 28.3946L28.7271 30.3474L28.8699 30.3159L28.4373 28.3631ZM28.2945 28.3946C27.8863 28.4844 27.4831 28.6023 27.0827 28.7539L27.7933 30.6239C28.0982 30.5085 28.4082 30.4176 28.7271 30.3474L28.2945 28.3946ZM27.2217 28.7125L27.0659 28.7468L27.4985 30.6996L27.6543 30.6653L27.2217 28.7125ZM26.9415 28.7828C26.4998 28.9421 26.071 29.1479 25.6663 29.3961L26.7139 31.1009C27.0027 30.9238 27.3087 30.777 27.6228 30.6636L26.9415 28.7828ZM25.6798 29.388C20.5889 32.3996 20.1321 38.7155 22.8449 43.3137L24.5677 42.2996C22.2408 38.3555 22.829 33.3992 26.7003 31.1091L25.6798 29.388ZM22.861 43.3401C24.3081 45.6286 26.2395 47.5692 28.5049 49.0164L29.5807 47.332C27.5641 46.0437 25.8423 44.3143 24.5516 42.2733L22.861 43.3401ZM28.5229 49.0276C31.6721 50.9468 34.9963 52.5223 38.4575 53.7344L39.1168 51.8475C35.7895 50.6822 32.5927 49.1672 29.5627 47.3207L28.5229 49.0276ZM38.4583 53.7347L38.8437 53.8693L39.5015 51.9818L39.1161 51.8472L38.4583 53.7347ZM39.8645 53.6485L40.1442 53.3811L38.7605 51.9353L38.4808 52.2027L39.8645 53.6485ZM40.1562 53.3694C42.7424 50.8124 45.0447 47.9979 47.0344 44.9602L45.3604 43.8635C43.4479 46.7832 41.2349 49.4886 38.7485 51.9469L40.1562 53.3694ZM47.0432 44.9466C48.4757 42.6804 49.3719 40.0982 49.6683 37.4222L47.68 37.1996C47.4164 39.5791 46.6198 41.8709 45.3516 43.8771L47.0432 44.9466ZM49.6713 37.3912C50.0909 32.104 46.926 26.5963 41.0795 26.0258L40.8877 28.0159C45.3396 28.4504 48.0371 32.6945 47.6771 37.2306L49.6713 37.3912Z" fill="url(#paint0_linear_1045_3575)" mask="url(#path-5-outside-1_1045_3575)"/>
    </g>
    <g filter="url(#filter4_bd_1045_3575)">
    <path d="M45.5012 34.7574C45.5594 35.3337 45.1615 35.8605 44.6075 35.9713C44.3039 35.9944 43.9955 35.9097 43.7655 35.7126C43.5355 35.5155 43.3898 35.2327 43.3618 34.9186L43.3546 34.8767C43.1903 33.9315 42.4596 33.1786 41.533 33.0041C40.9277 32.9009 40.521 32.3303 40.6123 31.7296C40.7173 31.1265 41.2763 30.7224 41.8661 30.8171C43.734 31.1776 45.1848 32.6949 45.4733 34.5965L45.5012 34.7574Z" fill="url(#paint1_linear_1045_3575)"/>
    <path d="M43.5611 34.9011L43.5604 34.8928L43.5589 34.8847L43.5516 34.8427C43.3735 33.8176 42.5808 32.998 41.5698 32.8076L41.5698 32.8075L41.5664 32.807C41.0703 32.7224 40.736 32.2549 40.8098 31.762C40.8973 31.2655 41.3549 30.9391 41.8316 31.014C43.6137 31.3594 44.9998 32.8085 45.2755 34.6262L45.2755 34.6262L45.2762 34.6304L45.3029 34.784C45.3465 35.2505 45.0254 35.6774 44.5798 35.7728C44.3255 35.7893 44.0768 35.7162 43.8956 35.5608C43.7061 35.3985 43.5846 35.1644 43.5611 34.9011Z" stroke="url(#paint2_linear_1045_3575)" stroke-width="0.4"/>
    </g>
    <defs>
    <filter id="filter0_b_1045_3575" x="27.0039" y="20.5811" width="44.2695" height="43.957" filterUnits="userSpaceOnUse" color-interpolation-filters="sRGB">
    <feFlood flood-opacity="0" result="BackgroundImageFix"/>
    <feGaussianBlur in="BackgroundImageFix" stdDeviation="6.5"/>
    <feComposite in2="SourceAlpha" operator="in" result="effect1_backgroundBlur_1045_3575"/>
    <feBlend mode="normal" in="SourceGraphic" in2="effect1_backgroundBlur_1045_3575" result="shape"/>
    </filter>
    <filter id="filter1_f_1045_3575" x="22.9199" y="18.8887" width="47.5273" height="47.332" filterUnits="userSpaceOnUse" color-interpolation-filters="sRGB">
    <feFlood flood-opacity="0" result="BackgroundImageFix"/>
    <feBlend mode="normal" in="SourceGraphic" in2="BackgroundImageFix" result="shape"/>
    <feGaussianBlur stdDeviation="9" result="effect1_foregroundBlur_1045_3575"/>
    </filter>
    <filter id="filter2_b_1045_3575" x="37.9453" y="16.958" width="30.0449" height="29.9971" filterUnits="userSpaceOnUse" color-interpolation-filters="sRGB">
    <feFlood flood-opacity="0" result="BackgroundImageFix"/>
    <feGaussianBlur in="BackgroundImageFix" stdDeviation="6.5"/>
    <feComposite in2="SourceAlpha" operator="in" result="effect1_backgroundBlur_1045_3575"/>
    <feBlend mode="normal" in="SourceGraphic" in2="effect1_backgroundBlur_1045_3575" result="shape"/>
    </filter>
    <filter id="filter3_b_1045_3575" x="-2.79688" y="1.98145" width="76.5059" height="75.9443" filterUnits="userSpaceOnUse" color-interpolation-filters="sRGB">
    <feFlood flood-opacity="0" result="BackgroundImageFix"/>
    <feGaussianBlur in="BackgroundImageFix" stdDeviation="12"/>
    <feComposite in2="SourceAlpha" operator="in" result="effect1_backgroundBlur_1045_3575"/>
    <feBlend mode="normal" in="SourceGraphic" in2="effect1_backgroundBlur_1045_3575" result="shape"/>
    </filter>
    <filter id="filter4_bd_1045_3575" x="25.5996" y="15.8037" width="34.9082" height="35.1709" filterUnits="userSpaceOnUse" color-interpolation-filters="sRGB">
    <feFlood flood-opacity="0" result="BackgroundImageFix"/>
    <feGaussianBlur in="BackgroundImageFix" stdDeviation="7.5"/>
    <feComposite in2="SourceAlpha" operator="in" result="effect1_backgroundBlur_1045_3575"/>
    <feColorMatrix in="SourceAlpha" type="matrix" values="0 0 0 0 0 0 0 0 0 0 0 0 0 0 0 0 0 0 127 0" result="hardAlpha"/>
    <feOffset dx="5" dy="5"/>
    <feGaussianBlur stdDeviation="5"/>
    <feColorMatrix type="matrix" values="0 0 0 0 1 0 0 0 0 0.321569 0 0 0 0 0.54902 0 0 0 0.5 0"/>
    <feBlend mode="normal" in2="effect1_backgroundBlur_1045_3575" result="effect2_dropShadow_1045_3575"/>
    <feBlend mode="normal" in="SourceGraphic" in2="effect2_dropShadow_1045_3575" result="shape"/>
    </filter>
    <linearGradient id="paint0_linear_1045_3575" x1="25.4793" y1="32.4229" x2="44.9122" y2="50.1942" gradientUnits="userSpaceOnUse">
    <stop stop-color="white" stop-opacity="0.25"/>
    <stop offset="1" stop-color="white" stop-opacity="0"/>
    </linearGradient>
    <linearGradient id="paint1_linear_1045_3575" x1="44.5906" y1="31.3151" x2="39.8277" y2="32.2676" gradientUnits="userSpaceOnUse">
    <stop stop-color="white"/>
    <stop offset="1" stop-color="white" stop-opacity="0.2"/>
    </linearGradient>
    <linearGradient id="paint2_linear_1045_3575" x1="41.223" y1="31.5312" x2="45.4264" y2="34.3775" gradientUnits="userSpaceOnUse">
    <stop stop-color="white" stop-opacity="0.25"/>
    <stop offset="1" stop-color="white" stop-opacity="0"/>
    </linearGradient>
    </defs>
    </svg>
    