<svg width="80" height="81" viewBox="0 0 80 81" fill="none" xmlns="http://www.w3.org/2000/svg">
    <path d="M52.7841 23.9918L41.9502 21.0858C38.0205 20.0317 35.1159 21.7213 34.0594 25.6681L30.4814 39.0355C29.4077 43.047 31.093 45.9124 35.0228 46.9664L45.8567 49.8724C49.8498 50.9435 52.6759 49.2883 53.7496 45.2767L57.3276 31.9094C58.3841 27.9626 56.7772 25.0628 52.7841 23.9918Z" fill="#9C8EFF"/>
    <g opacity="0.5" filter="url(#filter0_f_1053_3766)">
    <path d="M49.9534 27.6523L42.5722 25.6724C39.8948 24.9543 37.9159 26.1054 37.1961 28.7944L34.7584 37.9018C34.0268 40.6348 35.1751 42.587 37.8524 43.3052L45.2337 45.285C47.9542 46.0148 49.8797 44.887 50.6112 42.154L53.049 33.0467C53.7687 30.3577 52.674 28.382 49.9534 27.6523Z" fill="#9E77ED"/>
    </g>
    <g filter="url(#filter1_b_1053_3766)">
    <mask id="path-3-outside-1_1053_3766" maskUnits="userSpaceOnUse" x="18" y="25.5898" width="33" height="33" fill="black">
    <rect fill="white" x="18" y="25.5898" width="33" height="33"/>
    <path d="M41.0804 26.5898H27.7305C22.5107 26.5898 19 30.2584 19 35.7149V48.308C19 53.7491 22.5107 57.4177 27.7305 57.4177H41.0804C46.3002 57.4177 49.7955 53.7491 49.7955 48.308V35.7149C49.7955 30.2584 46.3002 26.5898 41.0804 26.5898Z"/>
    </mask>
    <path d="M41.0804 26.5898H27.7305C22.5107 26.5898 19 30.2584 19 35.7149V48.308C19 53.7491 22.5107 57.4177 27.7305 57.4177H41.0804C46.3002 57.4177 49.7955 53.7491 49.7955 48.308V35.7149C49.7955 30.2584 46.3002 26.5898 41.0804 26.5898Z" fill="#A27AF2" fill-opacity="0.1"/>
    <path d="M41.0804 27.5898C41.6327 27.5898 42.0804 27.1421 42.0804 26.5898C42.0804 26.0376 41.6327 25.5898 41.0804 25.5898V27.5898ZM41.0804 25.5898C40.5281 25.5898 40.0804 26.0376 40.0804 26.5898C40.0804 27.1421 40.5281 27.5898 41.0804 27.5898V25.5898ZM41.0804 25.5898H27.7305V27.5898H41.0804V25.5898ZM27.7305 25.5898C24.8775 25.5898 22.4237 26.598 20.6853 28.4148C18.9505 30.2279 18 32.7701 18 35.7149H20C20 33.2031 20.8048 31.1829 22.1304 29.7975C23.4522 28.416 25.3637 27.5898 27.7305 27.5898V25.5898ZM18 35.7149V48.308H20V35.7149H18ZM18 48.308C18 51.2458 18.951 53.7842 20.6857 55.595C22.424 57.4096 24.8775 58.4177 27.7305 58.4177V56.4177C25.3637 56.4177 23.4519 55.5915 22.1299 54.2115C20.8044 52.8278 20 50.8114 20 48.308H18ZM27.7305 58.4177H41.0804V56.4177H27.7305V58.4177ZM41.0804 58.4177C43.9336 58.4177 46.3837 57.4094 48.1184 55.5941C49.8491 53.7829 50.7955 51.2446 50.7955 48.308H48.7955C48.7955 50.8126 47.9942 52.8291 46.6724 54.2124C45.3544 55.5916 43.447 56.4177 41.0804 56.4177V58.4177ZM50.7955 48.308V35.7149H48.7955V48.308H50.7955ZM50.7955 35.7149C50.7955 32.7714 49.8496 30.2292 48.1188 28.4157C46.384 26.5981 43.9336 25.5898 41.0804 25.5898V27.5898C43.447 27.5898 45.3541 28.4158 46.672 29.7966C47.9938 31.1815 48.7955 33.2019 48.7955 35.7149H50.7955Z" fill="url(#paint0_linear_1053_3766)" mask="url(#path-3-outside-1_1053_3766)"/>
    </g>
    <g filter="url(#filter2_bd_1053_3766)">
    <mask id="path-5-inside-2_1053_3766" fill="white">
    <path d="M32.5703 47.0097C32.2254 47.0097 31.8805 46.8787 31.6172 46.6151L27.9633 42.9574C27.4367 42.4303 27.4367 41.5763 27.9633 41.0507C28.4899 40.5236 29.3414 40.522 29.868 41.0492L32.5703 43.7543L38.9265 37.3915C39.4531 36.8643 40.3046 36.8643 40.8312 37.3915C41.3578 37.9186 41.3578 38.7725 40.8312 39.2997L33.5234 46.6151C33.2601 46.8787 32.9152 47.0097 32.5703 47.0097Z"/>
    </mask>
    <path d="M32.5703 47.0097C32.2254 47.0097 31.8805 46.8787 31.6172 46.6151L27.9633 42.9574C27.4367 42.4303 27.4367 41.5763 27.9633 41.0507C28.4899 40.5236 29.3414 40.522 29.868 41.0492L32.5703 43.7543L38.9265 37.3915C39.4531 36.8643 40.3046 36.8643 40.8312 37.3915C41.3578 37.9186 41.3578 38.7725 40.8312 39.2997L33.5234 46.6151C33.2601 46.8787 32.9152 47.0097 32.5703 47.0097Z" fill="url(#paint1_linear_1053_3766)"/>
    <path d="M27.9633 41.0507L28.1046 41.1923L28.1048 41.1921L27.9633 41.0507ZM32.5703 43.7543L32.4288 43.8957L32.5703 44.0373L32.7118 43.8957L32.5703 43.7543ZM40.8312 39.2997L40.6897 39.1584V39.1584L40.8312 39.2997ZM33.5234 46.6151L33.6649 46.7565L33.5234 46.6151ZM32.5703 46.8097C32.2761 46.8097 31.9828 46.6982 31.7587 46.4738L31.4757 46.7565C31.7782 47.0593 32.1747 47.2097 32.5703 47.2097V46.8097ZM31.7587 46.4738L28.1048 42.8161L27.8218 43.0988L31.4757 46.7565L31.7587 46.4738ZM28.1048 42.8161C27.6561 42.3669 27.6564 41.6396 28.1046 41.1923L27.822 40.9092C27.217 41.513 27.2173 42.4936 27.8218 43.0988L28.1048 42.8161ZM28.1048 41.1921C28.5536 40.7428 29.2783 40.7419 29.7265 41.1905L30.0095 40.9078C29.4045 40.3022 28.4262 40.3043 27.8218 40.9094L28.1048 41.1921ZM29.7265 41.1905L32.4288 43.8957L32.7118 43.613L30.0095 40.9078L29.7265 41.1905ZM32.7118 43.8957L39.068 37.5328L38.785 37.2501L32.4288 43.613L32.7118 43.8957ZM39.068 37.5328C39.5165 37.0839 40.2412 37.0839 40.6897 37.5328L40.9727 37.2501C40.368 36.6448 39.3897 36.6448 38.785 37.2501L39.068 37.5328ZM40.6897 37.5328C41.1383 37.9819 41.1383 38.7093 40.6897 39.1584L40.9727 39.441C41.5773 38.8358 41.5773 37.8554 40.9727 37.2501L40.6897 37.5328ZM40.6897 39.1584L33.3819 46.4738L33.6649 46.7565L40.9727 39.441L40.6897 39.1584ZM33.3819 46.4738C33.1578 46.6982 32.8645 46.8097 32.5703 46.8097V47.2097C32.9659 47.2097 33.3625 47.0593 33.6649 46.7565L33.3819 46.4738Z" fill="url(#paint2_linear_1053_3766)" mask="url(#path-5-inside-2_1053_3766)"/>
    </g>
    <circle cx="40" cy="40.418" r="40" fill="#9E77ED" fill-opacity="0.16"/>
    <defs>
    <filter id="filter0_f_1053_3766" x="20.543" y="11.4629" width="46.7207" height="48.0391" filterUnits="userSpaceOnUse" color-interpolation-filters="sRGB">
    <feFlood flood-opacity="0" result="BackgroundImageFix"/>
    <feBlend mode="normal" in="SourceGraphic" in2="BackgroundImageFix" result="shape"/>
    <feGaussianBlur stdDeviation="7" result="effect1_foregroundBlur_1053_3766"/>
    </filter>
    <filter id="filter1_b_1053_3766" x="-6" y="1.58984" width="80.7949" height="80.8281" filterUnits="userSpaceOnUse" color-interpolation-filters="sRGB">
    <feFlood flood-opacity="0" result="BackgroundImageFix"/>
    <feGaussianBlur in="BackgroundImageFix" stdDeviation="12"/>
    <feComposite in2="SourceAlpha" operator="in" result="effect1_backgroundBlur_1053_3766"/>
    <feBlend mode="normal" in="SourceGraphic" in2="effect1_backgroundBlur_1053_3766" result="shape"/>
    </filter>
    <filter id="filter2_bd_1053_3766" x="12.5684" y="21.9961" width="43.6582" height="40.0137" filterUnits="userSpaceOnUse" color-interpolation-filters="sRGB">
    <feFlood flood-opacity="0" result="BackgroundImageFix"/>
    <feGaussianBlur in="BackgroundImageFix" stdDeviation="7.5"/>
    <feComposite in2="SourceAlpha" operator="in" result="effect1_backgroundBlur_1053_3766"/>
    <feColorMatrix in="SourceAlpha" type="matrix" values="0 0 0 0 0 0 0 0 0 0 0 0 0 0 0 0 0 0 127 0" result="hardAlpha"/>
    <feOffset dx="5" dy="5"/>
    <feGaussianBlur stdDeviation="5"/>
    <feColorMatrix type="matrix" values="0 0 0 0 0.454902 0 0 0 0 0.870588 0 0 0 0 0.376471 0 0 0 0.5 0"/>
    <feBlend mode="normal" in2="effect1_backgroundBlur_1053_3766" result="effect2_dropShadow_1053_3766"/>
    <feBlend mode="normal" in="SourceGraphic" in2="effect2_dropShadow_1053_3766" result="shape"/>
    </filter>
    <linearGradient id="paint0_linear_1053_3766" x1="23.9021" y1="30.1813" x2="43.5713" y2="54.5166" gradientUnits="userSpaceOnUse">
    <stop stop-color="white" stop-opacity="0.25"/>
    <stop offset="1" stop-color="white" stop-opacity="0"/>
    </linearGradient>
    <linearGradient id="paint1_linear_1053_3766" x1="40.2578" y1="38.8044" x2="25.0582" y2="39.4803" gradientUnits="userSpaceOnUse">
    <stop stop-color="white"/>
    <stop offset="1" stop-color="white"/>
    </linearGradient>
    <linearGradient id="paint2_linear_1053_3766" x1="24.3276" y1="37.6626" x2="40.8973" y2="39.815" gradientUnits="userSpaceOnUse">
    <stop stop-color="white"/>
    <stop offset="1" stop-color="white"/>
    </linearGradient>
    </defs>
    </svg>
    