<svg width="1440" height="742" viewBox="0 0 1440 742" fill="none" xmlns="http://www.w3.org/2000/svg">
    <path opacity="0.03" d="M1565.11 383.166C1391.62 482.488 1298.09 824.381 1367.77 999.169C1444.75 1192.19 1926.1 1162.87 1981.34 1115.8C2036.57 1068.74 1585.02 918.132 1646.64 740.531C1715.07 543.401 2058.7 543.131 2049.34 458.956C2040.14 376.133 1765.65 268.372 1565.11 383.166Z" stroke="#9E77ED" stroke-width="5" stroke-miterlimit="10"/>
    <path opacity="0.03" d="M1510.8 358.879C1307.45 445.434 1219.22 859.277 1308.86 1054.24C1410.45 1275.07 1933.41 1193.22 2011.04 1158.27C2077.95 1128.19 1643.55 925.654 1695.49 711.051C1751.86 477.893 2061.78 440.025 2038.63 385.928C2013.74 327.935 1749.42 257.555 1510.8 358.879Z" stroke="#9E77ED" stroke-width="5" stroke-miterlimit="10"/>
    <path opacity="0.03" d="M1456.49 334.643C1223.6 408.161 1140.51 894.115 1249.95 1109.26C1376.37 1358.11 1936.55 1222.86 2040.74 1200.79C2116.47 1184.56 1702.47 933.444 1744.29 681.459C1788.92 412.705 2071.84 333.886 2027.92 313.275C1995.13 276.759 1734.06 246.952 1456.49 334.643Z" stroke="#9E77ED" stroke-width="5" stroke-miterlimit="10"/>
    <path opacity="0.03" d="M1402.17 310.192C1139.91 371.213 1061.96 928.738 1191.2 1164.17C1342.67 1440.5 1947.09 1291.57 2070.6 1243.15C2147.96 1212.8 1761.76 941.126 1793.24 651.923C1826.4 347.573 2078.55 229.209 2017.37 240.407C1972.63 227.045 1718.64 236.674 1402.17 310.192Z" stroke="#9E77ED" stroke-width="5" stroke-miterlimit="10"/>
    <path opacity="0.03" d="M1347.86 286.063C1056.33 334.75 983.514 963.575 1132.12 1219.4C1308.69 1523.43 1943.57 1324.24 2100.13 1285.78C2187.99 1264.14 1820.88 949.185 1841.93 622.601C1863.57 282.655 2090.77 138.378 2006.49 167.753C1952.5 186.524 1703.33 226.664 1347.86 286.063Z" stroke="#9E77ED" stroke-width="5" stroke-miterlimit="10"/>
    <path opacity="0.03" d="M1293.6 261.773C972.754 298.397 905.133 998.305 1073.21 1274.42C1275.05 1606.09 1941.04 1298.98 2129.89 1328.51C2227.75 1343.71 1880.39 957.299 1890.78 593.28C1901.6 217.846 2099.06 31.1573 1995.78 95.2083C1931.52 134.807 1688.08 216.818 1293.6 261.773Z" stroke="#9E77ED" stroke-width="5" stroke-miterlimit="10"/>
    <path opacity="0.03" d="M1239.29 237.539C889.178 262.099 826.804 1032.77 1014.25 1329.49C1241.46 1688.69 1943.37 1321.27 2159.54 1370.76C2265.3 1395 1939.85 965.036 1939.53 563.582C1939.2 152.444 2105.6 -75.8453 1985.02 22.1786C1909.39 83.6869 1672.83 207.082 1239.29 237.539Z" stroke="#9E77ED" stroke-width="5" stroke-miterlimit="10"/>
    <path opacity="0.03" d="M1184.97 213.251C805.587 225.909 748.623 1067.55 955.328 1384.56C1207.74 1771.3 1946.28 1342.74 2189.23 1413.29C2303.16 1446.34 1999.46 972.828 1988.37 534.1C1977.06 87.475 2111.71 -181.983 1974.3 -50.5808C1886.88 32.9451 1657.45 197.508 1184.97 213.251Z" stroke="#9E77ED" stroke-width="5" stroke-miterlimit="10"/>
    <path opacity="0.03" d="M1130.66 188.959C722.013 189.77 670.188 1102.17 896.422 1439.63C1174.16 1853.9 1949.69 1363.89 2218.93 1455.86C2341.3 1497.67 2059.13 980.778 2037.17 504.669C2014.93 22.4482 2117.72 -287.636 1963.59 -123.343C1864.16 -17.4755 1642.26 187.985 1130.66 188.959Z" stroke="#9E77ED" stroke-width="5" stroke-miterlimit="10"/>
    <path opacity="0.03" d="M1076.35 164.727C638.163 153.907 591.91 1136.74 837.51 1494.65C1140.45 1936.41 1953.53 1384.45 2248.63 1498.27C2379.66 1548.8 2118.8 988.571 2085.96 475.136C2052.86 -42.6814 2123.83 -393.176 1952.83 -196.209C1841.39 -67.7283 1626.95 178.576 1076.35 164.727Z" stroke="#9E77ED" stroke-width="5" stroke-miterlimit="10"/>
    <path opacity="0.03" d="M1022.04 140.437C554.746 117.662 513.524 1171.31 778.599 1549.72C1107.08 2018.96 1957.92 1404.96 2278.33 1540.79C2418.17 1599.98 2178.58 996.415 2134.81 445.652C2090.83 -107.815 2129.73 -498.45 1942.12 -268.97C1818.56 -117.877 1611.59 169.216 1022.04 140.437Z" stroke="#9E77ED" stroke-width="5" stroke-miterlimit="10"/>
    <path opacity="0.03" d="M967.719 116.143C471.108 81.629 435.458 1205.87 719.684 1604.79C1073.59 2101.45 1962.08 1425.29 2308.03 1583.15C2456.74 1651.09 2238.3 1004.31 2183.61 416.003C2128.8 -173.06 2135.73 -603.781 1931.4 -341.897C1795.78 -167.975 1596.22 159.853 967.719 116.143Z" stroke="#9E77ED" stroke-width="5" stroke-miterlimit="10"/>
    <path opacity="0.03" d="M913.414 91.9113C387.428 45.6583 357.242 1240.66 660.781 1659.81C1040.11 2183.95 1966.68 1445.58 2337.79 1625.78C2495.54 1702.38 2298.14 1012.05 2232.46 386.632C2166.79 -238.784 2141.74 -708.779 1920.7 -414.708C1772.96 -218.011 1580.86 150.607 913.414 91.9113Z" stroke="#9E77ED" stroke-width="5" stroke-miterlimit="10"/>
    <path opacity="0.03" d="M859.102 67.619C303.741 9.68106 279.019 1274.96 601.816 1714.87C1006.62 2266.66 1971.5 1466.03 2367.44 1668.3C2534.33 1753.61 2357.92 1019.84 2281.26 357.146C2204.82 -303.216 2147.8 -813.784 1909.94 -487.363C1750.13 -267.999 1565.5 141.299 859.102 67.619Z" stroke="#9E77ED" stroke-width="5" stroke-miterlimit="10"/>
    <path opacity="0.03" d="M804.776 43.331C220.041 -26.2919 201.648 1308.88 543.055 1769.95C974.371 2348.14 1976.63 1485.94 2397.29 1710.76C2573.32 1804.84 2417.9 1027.63 2330.2 327.665C2243 -368.348 2154.01 -918.839 1899.38 -560.176C1727.29 -317.983 1550.02 132.104 804.776 43.331Z" stroke="#9E77ED" stroke-width="5" stroke-miterlimit="10"/>
    <path opacity="0.03" d="M750.469 19.0951C136.359 -62.2128 123.375 1343.45 483.986 1824.91C940.62 2430.8 1981.45 1505.74 2426.83 1753.18C2612.11 1855.96 2477.57 1035.31 2378.84 297.965C2280.93 -433.752 2159.91 -1024 1888.51 -633.207C1704.47 -367.969 1534.61 122.853 750.469 19.0951Z" stroke="#9E77ED" stroke-width="5" stroke-miterlimit="10"/>
    <path opacity="0.03" d="M696.156 -5.19618C52.4005 -98.1349 45.0432 1378.07 425.075 1880.03C907.026 2512.97 1986.53 1526.18 2456.53 1795.75C2651.28 1907.35 2538.7 1043.04 2427.64 268.643C2320.26 -498.886 2165.97 -1128.79 1877.8 -705.753C1681.64 -417.903 1519.13 113.655 696.156 -5.19618Z" stroke="#9E77ED" stroke-width="5" stroke-miterlimit="10"/>
    <path opacity="0.03" d="M641.849 -29.4823C-31.281 -132.862 -33.2825 1412.69 366.17 1935.11C873.438 2595.85 1991.73 1546.31 2486.29 1838.27C2690.07 1958.58 2598.27 1050.84 2476.5 239.164C2358.08 -564.015 2172.04 -1233.68 1867.04 -778.564C1658.82 -467.831 1503.45 105.977 641.849 -29.4823Z" stroke="#9E77ED" stroke-width="5" stroke-miterlimit="10"/>
    <path opacity="0.03" d="M587.525 -53.7187C-114.979 -169.054 -111.517 1447.26 307.248 1990.18C839.78 2678.4 1996.97 1566.38 2515.98 1880.79C2729.07 2009.87 2657.87 1058.52 2525.28 209.68C2395.88 -629.149 2178.14 -1338.63 1856.32 -851.326C1635.82 -517.493 1488.02 96.4548 587.525 -53.7187Z" stroke="#9E77ED" stroke-width="5" stroke-miterlimit="10"/>
    <path opacity="0.03" d="M533.211 -78.0083C-198.668 -205.245 -189.905 1481.88 248.335 2045.19C806.184 2760.79 2002.32 1586.5 2545.68 1923.26C2768.12 2061.15 2717.76 1066.47 2574.08 180.359C2433.42 -694.12 2183.33 -1443.96 1845.61 -923.978C1612.5 -568.074 1472.61 86.8796 533.211 -78.0083Z" stroke="#9E77ED" stroke-width="5" stroke-miterlimit="10"/>
    <path opacity="0.03" d="M478.907 -102.3C-282.347 -241.6 -268.39 1516.55 189.433 2100.26C772.6 2843.5 2007.69 1606.63 2575.38 1965.56C2807.24 2112.27 2777.11 1074.04 2622.94 150.496C2471.52 -759.471 2189.89 -1548.69 1834.9 -996.957C1590.01 -617.737 1457.31 77.5728 478.907 -102.3Z" stroke="#9E77ED" stroke-width="5" stroke-miterlimit="10"/>
    <path opacity="0.03" d="M1824.13 -1069.72C1567.5 -667.451 1441.72 67.7823 424.588 -126.534C-366.095 -277.627 -346.566 1551.07 130.462 2155.33C739 2926.11 2013.04 1626.75 2605.08 2008.24C3083.84 2316.81 2574.62 -2246.17 1824.13 -1069.72Z" stroke="#9E77ED" stroke-width="5" stroke-miterlimit="10"/>
    </svg>
    