<svg width="103" height="22" viewBox="0 0 103 22" fill="none" xmlns="http://www.w3.org/2000/svg">
    <path
        d="M10.5489 2.92705C10.8483 2.00574 12.1517 2.00574 12.4511 2.92705L13.7451 6.90983C13.879 7.32185 14.263 7.60081 14.6962 7.60081H18.8839C19.8527 7.60081 20.2554 8.84043 19.4717 9.40983L16.0838 11.8713C15.7333 12.126 15.5866 12.5773 15.7205 12.9894L17.0146 16.9721C17.3139 17.8934 16.2595 18.6596 15.4757 18.0902L12.0878 15.6287C11.7373 15.374 11.2627 15.374 10.9122 15.6287L7.52426 18.0902C6.74054 18.6596 5.68607 17.8934 5.98542 16.9721L7.2795 12.9894C7.41338 12.5773 7.26672 12.126 6.91623 11.8713L3.52827 9.40983C2.74456 8.84043 3.14734 7.60081 4.11606 7.60081H8.3038C8.73703 7.60081 9.12099 7.32185 9.25486 6.90983L10.5489 2.92705Z"
        fill="#9E77ED" />
    <path
        d="M30.5489 2.92705C30.8483 2.00574 32.1517 2.00574 32.4511 2.92705L33.7451 6.90983C33.879 7.32185 34.263 7.60081 34.6962 7.60081H38.8839C39.8527 7.60081 40.2554 8.84043 39.4717 9.40983L36.0838 11.8713C35.7333 12.126 35.5866 12.5773 35.7205 12.9894L37.0146 16.9721C37.3139 17.8934 36.2595 18.6596 35.4757 18.0902L32.0878 15.6287C31.7373 15.374 31.2627 15.374 30.9122 15.6287L27.5243 18.0902C26.7405 18.6596 25.6861 17.8934 25.9854 16.9721L27.2795 12.9894C27.4134 12.5773 27.2667 12.126 26.9162 11.8713L23.5283 9.40983C22.7446 8.84043 23.1473 7.60081 24.1161 7.60081H28.3038C28.737 7.60081 29.121 7.32185 29.2549 6.90983L30.5489 2.92705Z"
        fill="#9E77ED" />
    <path
        d="M50.5489 2.92705C50.8483 2.00574 52.1517 2.00574 52.4511 2.92705L53.7451 6.90983C53.879 7.32185 54.263 7.60081 54.6962 7.60081H58.8839C59.8527 7.60081 60.2554 8.84043 59.4717 9.40983L56.0838 11.8713C55.7333 12.126 55.5866 12.5773 55.7205 12.9894L57.0146 16.9721C57.3139 17.8934 56.2595 18.6596 55.4757 18.0902L52.0878 15.6287C51.7373 15.374 51.2627 15.374 50.9122 15.6287L47.5243 18.0902C46.7405 18.6596 45.6861 17.8934 45.9854 16.9721L47.2795 12.9894C47.4134 12.5773 47.2667 12.126 46.9162 11.8713L43.5283 9.40983C42.7446 8.84043 43.1473 7.60081 44.1161 7.60081H48.3038C48.737 7.60081 49.121 7.32185 49.2549 6.90983L50.5489 2.92705Z"
        fill="#9E77ED" />
    <path
        d="M70.5489 2.92705C70.8483 2.00574 72.1517 2.00574 72.4511 2.92705L73.7451 6.90983C73.879 7.32185 74.263 7.60081 74.6962 7.60081H78.8839C79.8527 7.60081 80.2554 8.84043 79.4717 9.40983L76.0838 11.8713C75.7333 12.126 75.5866 12.5773 75.7205 12.9894L77.0146 16.9721C77.3139 17.8934 76.2595 18.6596 75.4757 18.0902L72.0878 15.6287C71.7373 15.374 71.2627 15.374 70.9122 15.6287L67.5243 18.0902C66.7405 18.6596 65.6861 17.8934 65.9854 16.9721L67.2795 12.9894C67.4134 12.5773 67.2667 12.126 66.9162 11.8713L63.5283 9.40983C62.7446 8.84043 63.1473 7.60081 64.1161 7.60081H68.3038C68.737 7.60081 69.121 7.32185 69.2549 6.90983L70.5489 2.92705Z"
        fill="#9E77ED" />
    <path
        d="M90.5489 2.92705C90.8483 2.00574 92.1517 2.00574 92.4511 2.92705L93.7451 6.90983C93.879 7.32185 94.263 7.60081 94.6962 7.60081H98.8839C99.8527 7.60081 100.255 8.84043 99.4717 9.40983L96.0838 11.8713C95.7333 12.126 95.5866 12.5773 95.7205 12.9894L97.0146 16.9721C97.3139 17.8934 96.2595 18.6596 95.4757 18.0902L92.0878 15.6287C91.7373 15.374 91.2627 15.374 90.9122 15.6287L87.5243 18.0902C86.7405 18.6596 85.6861 17.8934 85.9854 16.9721L87.2795 12.9894C87.4134 12.5773 87.2667 12.126 86.9162 11.8713L83.5283 9.40983C82.7446 8.84043 83.1473 7.60081 84.1161 7.60081H88.3038C88.737 7.60081 89.121 7.32185 89.2549 6.90983L90.5489 2.92705Z"
        fill="#9E77ED" />
</svg>
    