<svg width="200" height="150" viewBox="0 0 255 254" fill="none" xmlns="http://www.w3.org/2000/svg">
    <g filter="url(#filter0_d_1045_3401)">
        <circle cx="45.3264" cy="45.3264" r="45.3264" transform="matrix(-1 0 0 1 173.152 59)" fill="white" />
    </g>
    <path
        d="M142.332 103.831C142.332 103.142 141.82 102.573 141.157 102.483L140.972 102.471L117.069 102.472L125.704 93.8716C126.237 93.3417 126.239 92.4807 125.709 91.9486C125.227 91.4648 124.472 91.4193 123.938 91.8131L123.786 91.9444L112.817 102.866C112.746 102.936 112.686 103.012 112.634 103.092C112.619 103.116 112.604 103.14 112.59 103.165C112.577 103.187 112.566 103.209 112.555 103.232C112.539 103.264 112.524 103.298 112.511 103.333C112.5 103.36 112.49 103.386 112.482 103.412C112.472 103.444 112.462 103.479 112.454 103.514C112.447 103.538 112.443 103.562 112.438 103.586C112.432 103.621 112.427 103.657 112.423 103.694C112.42 103.722 112.418 103.75 112.417 103.778C112.417 103.795 112.417 103.813 112.417 103.831L112.417 103.883C112.418 103.91 112.42 103.937 112.423 103.963L112.417 103.831C112.417 103.916 112.425 104 112.44 104.082C112.443 104.101 112.448 104.121 112.452 104.141C112.462 104.182 112.473 104.221 112.486 104.26C112.492 104.279 112.499 104.3 112.507 104.32C112.523 104.361 112.541 104.4 112.56 104.438C112.568 104.456 112.578 104.475 112.589 104.493C112.606 104.523 112.623 104.552 112.642 104.58C112.655 104.6 112.669 104.62 112.684 104.641L112.696 104.656C112.733 104.704 112.772 104.75 112.815 104.792L112.817 104.793L123.786 115.717C124.318 116.247 125.179 116.245 125.709 115.713C126.19 115.229 126.233 114.474 125.837 113.942L125.705 113.79L117.073 105.191L140.972 105.19C141.723 105.19 142.332 104.582 142.332 103.831Z"
        fill="#272727" />
    <defs>
        <filter id="filter0_d_1045_3401" x="0.912569" y="0.0757427" width="253.827" height="253.827"
            filterUnits="userSpaceOnUse" color-interpolation-filters="sRGB">
            <feFlood flood-opacity="0" result="BackgroundImageFix" />
            <feColorMatrix in="SourceAlpha" type="matrix"
                values="0 0 0 0 0 0 0 0 0 0 0 0 0 0 0 0 0 0 127 0" result="hardAlpha" />
            <feMorphology radius="27.1958" operator="erode" in="SourceAlpha"
                result="effect1_dropShadow_1045_3401" />
            <feOffset dy="22.6632" />
            <feGaussianBlur stdDeviation="54.3916" />
            <feComposite in2="hardAlpha" operator="out" />
            <feColorMatrix type="matrix" values="0 0 0 0 0 0 0 0 0 0 0 0 0 0 0 0 0 0 0.08 0" />
            <feBlend mode="normal" in2="BackgroundImageFix" result="effect1_dropShadow_1045_3401" />
            <feBlend mode="normal" in="SourceGraphic" in2="effect1_dropShadow_1045_3401"
                result="shape" />
        </filter>
    </defs>
</svg>
