<svg   class="svg-hover" width="200" height="150" viewBox="0 0 255 254" fill="none" xmlns="http://www.w3.org/2000/svg">
    <g filter="url(#filter0_d_1045_3405)">
        <circle class="circle" cx="127.826" cy="104.326" r="45.3264" fill="white" />
    </g>
    <path class="path"
        d="M113.32 103.831C113.32 103.142 113.832 102.573 114.496 102.483L114.68 102.471L138.583 102.472L129.948 93.8716C129.416 93.3417 129.414 92.4807 129.944 91.9486C130.425 91.4648 131.181 91.4193 131.714 91.8131L131.867 91.9444L142.836 102.866C142.906 102.936 142.967 103.012 143.019 103.092C143.033 103.116 143.048 103.14 143.062 103.165C143.075 103.187 143.087 103.209 143.098 103.232C143.113 103.264 143.128 103.298 143.142 103.333C143.153 103.36 143.162 103.386 143.171 103.412C143.181 103.444 143.19 103.479 143.199 103.514C143.205 103.538 143.21 103.562 143.214 103.586C143.22 103.621 143.225 103.657 143.229 103.694C143.232 103.722 143.234 103.75 143.235 103.778C143.235 103.795 143.236 103.813 143.236 103.831L143.235 103.883C143.234 103.91 143.232 103.937 143.23 103.963L143.236 103.831C143.236 103.916 143.228 104 143.213 104.082C143.209 104.101 143.205 104.121 143.2 104.141C143.191 104.182 143.179 104.221 143.167 104.26C143.16 104.279 143.153 104.3 143.145 104.32C143.129 104.361 143.112 104.4 143.093 104.438C143.084 104.456 143.074 104.475 143.064 104.493C143.047 104.523 143.029 104.552 143.011 104.58C142.998 104.6 142.983 104.62 142.968 104.641L142.956 104.656C142.92 104.704 142.88 104.75 142.837 104.792L142.836 104.793L131.867 115.717C131.335 116.247 130.474 116.245 129.944 115.713C129.462 115.229 129.42 114.474 129.816 113.942L129.948 113.79L138.58 105.191L114.68 105.19C113.929 105.19 113.32 104.582 113.32 103.831Z"
        fill="#272727" />
    <defs>
        <filter id="filter0_d_1045_3405" x="0.912569" y="0.0757427" width="253.827" height="253.827"
            filterUnits="userSpaceOnUse" color-interpolation-filters="sRGB">
            <feFlood flood-opacity="0" result="BackgroundImageFix" />
            <feColorMatrix in="SourceAlpha" type="matrix"
                values="0 0 0 0 0 0 0 0 0 0 0 0 0 0 0 0 0 0 127 0" result="hardAlpha" />
            <feMorphology radius="27.1958" operator="erode" in="SourceAlpha"
                result="effect1_dropShadow_1045_3405" />
            <feOffset dy="22.6632" />
            <feGaussianBlur stdDeviation="54.3916" />
            <feComposite in2="hardAlpha" operator="out" />
            <feColorMatrix type="matrix" values="0 0 0 0 0 0 0 0 0 0 0 0 0 0 0 0 0 0 0.08 0" />
            <feBlend mode="normal" in2="BackgroundImageFix" result="effect1_dropShadow_1045_3405" />
            <feBlend mode="normal" in="SourceGraphic" in2="effect1_dropShadow_1045_3405"
                result="shape" />
        </filter>
    </defs>
</svg>
    